<svg xmlns="http://www.w3.org/2000/svg" viewBox="0 0 512 512" role="img" aria-labelledby="title desc">
  <title id="title">py-soupx sticker</title>
  <desc id="desc">OmicVerse repository hex sticker for py-soupx.</desc>
  <defs>
    <linearGradient id="bg" x1="112" y1="90" x2="398" y2="430" gradientUnits="userSpaceOnUse">
      <stop offset="0" stop-color="#050706"/>
      <stop offset=".58" stop-color="#020403"/>
      <stop offset="1" stop-color="#000000"/>
    </linearGradient>
  </defs>
  <polygon points="256,34 450,146 450,368 256,480 62,368 62,146" fill="#000000" opacity=".34"/>
  <polygon points="256,22 458,139 458,373 256,490 54,373 54,139" fill="url(#bg)" stroke="#0B0F0A" stroke-width="19" stroke-linejoin="round"/>
  <polygon points="256,22 458,139 458,373 256,490 54,373 54,139" fill="none" stroke="#E8FFE0" stroke-width="12" stroke-linejoin="round"/>
  <g opacity=".22" stroke="#3FD36B" stroke-width="2.2">
    <path d="M112 166h288M100 222h312M100 278h312M112 334h288"/>
    <path d="M152 126v236M204 104v274M256 96v286M308 104v274M360 126v236"/>
  </g>
  <g id="motif">
    <path d="M256 128c74 86 104 142 104 186 0 48-42 78-104 78s-104-30-104-78c0-44 30-100 104-186z" fill="#00C7BE" opacity=".32" stroke="#FFFFFF" stroke-width="7"/>
    <path d="M170 284h172M194 324h124M224 364h64" stroke="#FFFFFF" stroke-width="7" stroke-linecap="round"/>
    <circle cx="216" cy="250" r="13" fill="#FF6961"/><circle cx="276" cy="228" r="12" fill="#FFD60A"/><circle cx="314" cy="278" r="11" fill="#32D74B"/>
    <path d="M326 160l44-44M370 160l-44-44" stroke="#FF6961" stroke-width="8" stroke-linecap="round"/>
  </g>
  <path id="label" d="M306.13,382.03 L311.15,390.71 L305.86,393.76 L292.68,370.93 L297.96,367.88 L299.36,370.30 Q299.62,368.22 300.56,366.77 Q301.49,365.31 303.22,364.31 Q306.28,362.55 309.64,363.85 Q313.01,365.14 315.22,368.96 Q317.43,372.79 316.86,376.36 Q316.31,379.92 313.25,381.69 Q311.52,382.68 309.79,382.77 Q308.07,382.84 306.13,382.03 Z M303.47,369.29 Q301.77,370.27 301.58,372.04 Q301.39,373.81 302.75,376.16 Q304.10,378.51 305.73,379.24 Q307.37,379.96 309.06,378.98 Q310.76,378.00 310.94,376.24 Q311.12,374.48 309.75,372.12 Q308.39,369.76 306.78,369.04 Q305.16,368.31 303.47,369.29 Z M312.16,359.68 L317.45,356.63 L328.38,365.29 L325.68,351.88 L330.96,348.83 L334.46,370.95 Q335.01,374.32 334.25,376.22 Q333.49,378.13 331.20,379.45 L328.14,381.22 L326.14,377.75 L327.79,376.79 Q329.14,376.02 329.50,375.23 Q329.87,374.45 329.56,373.15 L329.45,372.60 L312.16,359.68 Z M336.43,353.25 L345.71,347.89 L348.19,352.19 L338.91,357.55 L336.43,353.25 Z M359.83,332.85 L362.15,336.86 Q360.04,337.13 358.26,337.69 Q356.47,338.25 355.07,339.06 Q353.56,339.93 353.05,340.73 Q352.54,341.53 352.99,342.31 Q353.35,342.95 354.10,342.97 Q354.85,342.99 356.38,342.33 L357.39,341.92 Q361.75,340.09 363.83,340.46 Q365.92,340.83 367.38,343.36 Q368.90,346.01 367.72,348.47 Q366.54,350.92 362.67,353.15 Q361.03,354.10 359.13,354.85 Q357.23,355.60 355.08,356.15 L352.76,352.13 Q354.79,351.99 356.67,351.41 Q358.56,350.84 360.27,349.85 Q361.82,348.95 362.36,348.08 Q362.89,347.19 362.41,346.35 Q362.00,345.64 361.26,345.60 Q360.52,345.57 358.80,346.31 L357.80,346.73 Q354.01,348.32 351.90,347.94 Q349.79,347.57 348.38,345.13 Q346.87,342.50 347.94,340.19 Q349.01,337.88 352.73,335.73 Q354.19,334.88 355.93,334.18 Q357.67,333.47 359.83,332.85 Z M374.44,328.24 Q372.68,329.25 372.49,331.05 Q372.29,332.84 373.67,335.22 Q375.04,337.60 376.69,338.33 Q378.34,339.06 380.10,338.05 Q381.83,337.05 382.02,335.26 Q382.20,333.46 380.83,331.08 Q379.46,328.71 377.81,327.97 Q376.17,327.24 374.44,328.24 Z M372.26,324.46 Q376.52,321.99 380.26,322.91 Q383.99,323.83 386.34,327.90 Q388.70,331.98 387.63,335.67 Q386.55,339.36 382.29,341.83 Q378.00,344.30 374.26,343.39 Q370.51,342.48 368.16,338.40 Q365.80,334.33 366.89,330.63 Q367.97,326.93 372.26,324.46 Z M391.05,327.60 L385.22,317.50 L390.54,314.43 L391.49,316.09 Q392.27,317.43 393.43,319.47 Q394.59,321.51 394.98,322.19 Q396.13,324.18 396.74,325.00 Q397.35,325.82 397.83,326.08 Q398.45,326.40 399.14,326.39 Q399.83,326.36 400.51,325.97 Q402.16,325.01 402.37,323.20 Q402.58,321.38 401.28,319.12 L396.56,310.95 L401.85,307.90 L411.40,324.44 L406.11,327.50 L404.73,325.10 Q404.37,327.24 403.43,328.70 Q402.49,330.16 400.88,331.09 Q398.02,332.74 395.50,331.85 Q392.99,330.96 391.05,327.60 Z M420.39,316.06 L425.40,324.75 L420.12,327.80 L406.93,304.96 L412.22,301.91 L413.62,304.33 Q413.88,302.25 414.81,300.80 Q415.74,299.35 417.47,298.35 Q420.53,296.58 423.90,297.88 Q427.26,299.18 429.47,303.00 Q431.68,306.82 431.12,310.39 Q430.56,313.95 427.50,315.72 Q425.77,316.72 424.05,316.80 Q422.32,316.88 420.39,316.06 Z M417.72,303.32 Q416.03,304.30 415.83,306.08 Q415.65,307.85 417.00,310.20 Q418.36,312.55 419.99,313.27 Q421.62,313.99 423.32,313.01 Q425.01,312.03 425.19,310.28 Q425.37,308.52 424.01,306.15 Q422.64,303.79 421.03,303.07 Q419.42,302.34 417.72,303.32 Z M437.43,298.13 L426.80,293.50 L432.40,290.26 L438.61,293.21 L439.21,286.33 L444.81,283.10 L443.48,294.59 L454.65,299.47 L449.06,302.70 L442.31,299.63 L441.65,306.98 L436.06,310.21 L437.43,298.13 Z" fill="#FFFFFF"/>
</svg>
